<?xml version="1.0" encoding="UTF-8" standalone="no"?>
<!DOCTYPE svg PUBLIC "-//W3C//DTD SVG 1.1//EN" "http://www.w3.org/Graphics/SVG/1.1/DTD/svg11.dtd">
<svg width="22" height="22" viewBox="0 0 22 22" version="1.1" xmlns="http://www.w3.org/2000/svg" xmlns:xlink="http://www.w3.org/1999/xlink" xml:space="preserve" xmlns:serif="http://www.serif.com/" style="fill-rule:evenodd;clip-rule:evenodd;stroke-linecap:round;stroke-linejoin:round;stroke-miterlimit:1.5;">
    <g transform="matrix(0.83721,0,0,1.00867,-66.0995,-69.5562)">
        <ellipse cx="92.091" cy="79.864" rx="11.925" ry="9.914" style="fill:rgb(65,2,0);"/>
        <clipPath id="_clip1">
            <ellipse cx="92.091" cy="79.864" rx="11.925" ry="9.914"/>
        </clipPath>
        <g clip-path="url(#_clip1)">
            <g transform="matrix(1.19444,0,0,0.991409,78.9521,68.9586)">
                <path d="M8.25,0.908L10.362,0.729L10.834,5.967C10.9,6.7 11.11,7.329 11.422,7.733C11.691,8.081 11.834,8.254 11.808,7.984C11.784,7.739 11.851,7.392 11.98,7.094C12.047,6.939 12.151,6.741 12.225,6.63C12.321,6.483 12.52,6.282 12.675,6.176C13.364,5.701 14.476,5.616 15.682,5.947C16.022,6.04 16.239,6.148 16.554,6.385C16.71,6.501 16.98,6.762 17.126,6.936C17.586,7.485 17.927,8.188 18.1,8.941C18.361,10.09 18.256,11.37 17.793,12.673C17.693,12.956 17.508,13.406 17.478,13.444C17.47,13.453 17.429,13.52 17.387,13.591C16.412,15.24 15.006,16.23 13.292,16.474C12.3,16.614 11.193,16.487 10.259,16.219C9.484,15.998 8.835,15.711 8.29,15.35C8.119,15.236 8.024,15.145 7.925,15.001C7.823,14.851 7.781,14.821 7.61,14.766C7.407,14.703 7.181,14.672 6.783,14.655C6.456,14.642 6.264,14.612 5.964,14.531C5.879,14.508 5.866,14.486 5.894,14.596C5.905,14.641 5.921,14.716 5.927,14.764C5.942,14.87 5.943,15.145 5.928,15.296C5.915,15.424 5.093,19.457 5.082,19.475C5.076,19.483 2.576,17.055 2.576,17.055C2.576,17.055 3.96,14.414 4.144,14.05C4.565,13.218 4.975,12.677 5.406,12.388C5.709,12.186 5.977,12.104 6.397,12.089C6.605,12.081 6.817,12.095 6.931,12.124C7.034,12.152 7.214,12.243 7.323,12.326C7.376,12.366 7.499,12.476 7.597,12.57C8.017,12.974 8.136,13.025 8.528,12.967C8.735,12.937 9.116,12.927 9.328,12.972C9.558,13.02 9.726,13.086 10.018,13.241C10.404,13.446 10.447,13.461 10.658,13.46C10.786,13.46 10.817,13.456 10.896,13.429C11.164,13.341 11.341,13.143 11.418,12.847C11.444,12.747 11.448,12.703 11.456,12.413C11.478,11.703 11.591,10.998 11.65,10.289C11.66,10.173 11.767,9.993 11.664,9.94C11.616,9.915 11.487,9.891 11.219,9.859C10.663,9.79 10.284,9.697 9.843,9.523C9.594,9.425 9.482,9.351 9.321,9.183C8.887,8.73 8.598,7.892 8.467,6.704C8.425,6.323 8.398,5.901 8.398,5.624L8.25,0.908Z" style="fill:rgb(129,43,43);fill-rule:nonzero;"/>
            </g>
        </g>
        <ellipse cx="92.091" cy="79.864" rx="11.925" ry="9.914" style="fill:none;stroke:black;stroke-width:0.51px;"/>
    </g>
</svg>
