<?xml version="1.0" encoding="UTF-8" standalone="no"?><!DOCTYPE svg PUBLIC "-//W3C//DTD SVG 1.1//EN" "http://www.w3.org/Graphics/SVG/1.1/DTD/svg11.dtd"><svg width="56" height="12" viewBox="0 0 56 12" version="1.1" xmlns="http://www.w3.org/2000/svg" xmlns:xlink="http://www.w3.org/1999/xlink" xml:space="preserve" xmlns:serif="http://www.serif.com/" style="fill-rule:evenodd;clip-rule:evenodd;stroke-linecap:round;stroke-linejoin:round;stroke-miterlimit:1.5;"><g><path d="M35.596,0.812c3.178,0.851 5.443,2.718 5.055,4.166c-0.388,1.449 -3.283,1.933 -6.461,1.081c-3.178,-0.851 -5.443,-2.718 -5.055,-4.166c0.388,-1.449 3.283,-1.933 6.461,-1.081Z" style="fill:#425429;stroke:#1f3f13;stroke-width:0.26px;"/><path d="M20.44,0.812c3.179,-0.852 6.074,-0.368 6.462,1.081c0.388,1.448 -1.877,3.315 -5.055,4.166c-3.178,0.852 -6.074,0.368 -6.462,-1.081c-0.388,-1.448 1.877,-3.315 5.055,-4.166Z" style="fill:#425429;stroke:#1f3f13;stroke-width:0.26px;"/><ellipse cx="27.105" cy="3.435" rx="5.961" ry="2.716" style="fill:#425429;stroke:#1f3f13;stroke-width:0.26px;"/><ellipse cx="19.111" cy="3.562" rx="5.961" ry="2.716" style="fill:#425429;stroke:#1f3f13;stroke-width:0.26px;"/><path d="M4.472,4.768c2.849,-1.645 5.771,-1.927 6.521,-0.628c0.75,1.298 -0.955,3.688 -3.804,5.333c-2.85,1.645 -5.772,1.926 -6.521,0.628c-0.75,-1.298 0.955,-3.688 3.804,-5.333Z" style="fill:#425429;stroke:#1f3f13;stroke-width:0.26px;"/><path d="M10.885,2.954c3.179,-0.852 6.074,-0.368 6.462,1.081c0.388,1.448 -1.877,3.315 -5.055,4.166c-3.178,0.852 -6.074,0.368 -6.462,-1.081c-0.388,-1.448 1.877,-3.315 5.055,-4.166Z" style="fill:#425429;stroke:#1f3f13;stroke-width:0.26px;"/><path d="M51.528,5.046c2.849,1.645 4.554,4.034 3.804,5.333c-0.749,1.298 -3.671,1.017 -6.521,-0.628c-2.849,-1.645 -4.554,-4.035 -3.804,-5.334c0.75,-1.298 3.672,-1.016 6.521,0.629Z" style="fill:#425429;stroke:#1f3f13;stroke-width:0.26px;"/><ellipse cx="36.889" cy="3.84" rx="5.961" ry="2.716" style="fill:#425429;stroke:#1f3f13;stroke-width:0.26px;"/><path d="M43.35,2.759c3.178,0.851 5.443,2.718 5.055,4.166c-0.388,1.448 -3.283,1.933 -6.461,1.081c-3.178,-0.851 -5.443,-2.718 -5.055,-4.166c0.388,-1.449 3.283,-1.933 6.461,-1.081Z" style="fill:#425429;stroke:#1f3f13;stroke-width:0.26px;"/></g></svg>