<?xml version="1.0" encoding="UTF-8" standalone="no"?>
<!DOCTYPE svg PUBLIC "-//W3C//DTD SVG 1.1//EN" "http://www.w3.org/Graphics/SVG/1.1/DTD/svg11.dtd">
<svg width="60" height="44" viewBox="0 0 60 44" version="1.1" xmlns="http://www.w3.org/2000/svg" xmlns:xlink="http://www.w3.org/1999/xlink" xml:space="preserve" xmlns:serif="http://www.serif.com/" style="fill-rule:evenodd;clip-rule:evenodd;stroke-linejoin:round;stroke-miterlimit:2;">
    <g transform="matrix(1,0,0,1,-70,-4)">
        <g transform="matrix(1,0,0,1,0,-0.551296)">
            <g transform="matrix(1,0,0,1,-1.02093,0)">
                <path d="M103.016,43.963C103.016,43.963 105.495,40.361 106.923,36.594C107.811,34.254 108.352,31.882 108.023,30.036C107.787,28.733 107.218,27.314 106.26,25.91C104.868,23.872 102.791,21.731 101.101,19.648C100.073,18.383 99.109,17.238 98.902,16.064C98.639,14.848 98.974,13.301 99.481,11.725C100.659,8.065 102.594,4.491 102.487,4.414C102.567,4.524 99.392,7.32 97.198,10.627C95.912,12.566 95.184,14.679 95.149,16.428C95.172,17.655 95.629,18.974 96.296,20.37C97.198,22.256 98.609,24.25 99.877,26.209C100.935,27.844 101.922,29.387 101.992,30.742C102.061,31.956 101.119,33.4 100.294,34.797C98.824,37.285 96.984,39.36 96.984,39.36C95.713,41.025 96.033,43.408 97.698,44.678C99.363,45.948 101.746,45.628 103.016,43.963Z" style="fill:rgb(41,100,123);"/>
            </g>
            <g transform="matrix(0.965926,-0.258819,0.258819,0.965926,-23.4606,29.5536)">
                <path d="M103.016,43.963C103.016,43.963 105.495,40.361 106.923,36.594C107.811,34.254 108.352,31.882 108.023,30.036C107.787,28.733 107.218,27.314 106.26,25.91C104.868,23.872 102.791,21.731 101.101,19.648C100.073,18.383 99.109,17.238 98.902,16.064C98.639,14.848 98.974,13.301 99.481,11.725C100.659,8.065 102.594,4.491 102.487,4.414C102.567,4.524 99.392,7.32 97.198,10.627C95.912,12.566 95.184,14.679 95.149,16.428C95.172,17.655 95.629,18.974 96.296,20.37C97.198,22.256 98.609,24.25 99.877,26.209C100.935,27.844 101.922,29.387 101.992,30.742C102.061,31.956 101.119,33.4 100.294,34.797C98.824,37.285 96.984,39.36 96.984,39.36C95.713,41.025 96.033,43.408 97.698,44.678C99.363,45.948 101.746,45.628 103.016,43.963Z" style="fill:rgb(41,100,123);"/>
            </g>
            <g transform="matrix(0.965926,0.258819,-0.258819,0.965926,28.3032,-22.7387)">
                <path d="M103.016,43.963C103.016,43.963 105.495,40.361 106.923,36.594C107.811,34.254 108.352,31.882 108.023,30.036C107.787,28.733 107.218,27.314 106.26,25.91C104.868,23.872 102.791,21.731 101.101,19.648C100.073,18.383 99.109,17.238 98.902,16.064C98.639,14.848 98.974,13.301 99.481,11.725C100.659,8.065 102.594,4.491 102.487,4.414C102.567,4.524 99.392,7.32 97.198,10.627C95.912,12.566 95.184,14.679 95.149,16.428C95.172,17.655 95.629,18.974 96.296,20.37C97.198,22.256 98.609,24.25 99.877,26.209C100.935,27.844 101.922,29.387 101.992,30.742C102.061,31.956 101.119,33.4 100.294,34.797C98.824,37.285 96.984,39.36 96.984,39.36C95.713,41.025 96.033,43.408 97.698,44.678C99.363,45.948 101.746,45.628 103.016,43.963Z" style="fill:rgb(41,100,123);"/>
            </g>
        </g>
    </g>
</svg>
