<?xml version="1.0" encoding="UTF-8" standalone="no"?>
<!DOCTYPE svg PUBLIC "-//W3C//DTD SVG 1.1//EN" "http://www.w3.org/Graphics/SVG/1.1/DTD/svg11.dtd">
<svg width="22" height="22" viewBox="0 0 22 22" version="1.1" xmlns="http://www.w3.org/2000/svg" xmlns:xlink="http://www.w3.org/1999/xlink" xml:space="preserve" xmlns:serif="http://www.serif.com/" style="fill-rule:evenodd;clip-rule:evenodd;stroke-linecap:round;stroke-linejoin:round;stroke-miterlimit:1.5;">
    <g transform="matrix(1,0,0,1,-89,-49)">
        <g transform="matrix(1,0,0,1,0,-0.377836)">
            <g transform="matrix(0.83721,0,0,1.00867,22.9005,-20.1784)">
                <ellipse cx="92.091" cy="79.864" rx="11.925" ry="9.914" style="fill:rgb(17,0,144);stroke:rgb(18,64,207);stroke-width:0.51px;"/>
            </g>
            <path d="M100.435,60.647C100.723,60.146 101.184,59.341 101.432,58.518C101.608,57.931 101.684,57.337 101.547,56.82C101.469,56.527 101.289,56.217 101.034,55.91C100.537,55.313 99.761,54.703 99.209,54.161C98.928,53.886 98.702,53.642 98.645,53.42C98.577,53.158 98.712,52.908 98.909,52.678C99.241,52.29 99.75,51.963 100.072,51.755C100.139,51.716 100.16,51.629 100.121,51.563C100.081,51.496 99.995,51.475 99.928,51.514C99.569,51.712 99.006,52.028 98.624,52.416C98.304,52.74 98.123,53.121 98.198,53.52C98.251,53.806 98.491,54.153 98.823,54.527C99.322,55.089 100.036,55.73 100.478,56.342C100.64,56.566 100.761,56.784 100.801,56.99C100.876,57.38 100.77,57.813 100.609,58.239C100.332,58.971 99.857,59.67 99.565,60.108C99.416,60.349 99.49,60.665 99.73,60.813C99.971,60.962 100.287,60.888 100.435,60.647Z" style="fill:rgb(207,20,18);"/>
            <g transform="matrix(0.707107,-0.707107,0.707107,0.707107,-13.4043,88.3949)">
                <path d="M100.435,60.647C100.723,60.146 101.184,59.341 101.432,58.518C101.608,57.931 101.684,57.337 101.547,56.82C101.469,56.527 101.289,56.217 101.034,55.91C100.537,55.313 99.761,54.703 99.209,54.161C98.928,53.886 98.702,53.642 98.645,53.42C98.577,53.158 98.712,52.908 98.909,52.678C99.241,52.29 99.75,51.963 100.072,51.755C100.139,51.716 100.16,51.629 100.121,51.563C100.081,51.496 99.995,51.475 99.928,51.514C99.569,51.712 99.006,52.028 98.624,52.416C98.304,52.74 98.123,53.121 98.198,53.52C98.251,53.806 98.491,54.153 98.823,54.527C99.322,55.089 100.036,55.73 100.478,56.342C100.64,56.566 100.761,56.784 100.801,56.99C100.876,57.38 100.77,57.813 100.609,58.239C100.332,58.971 99.857,59.67 99.565,60.108C99.416,60.349 99.49,60.665 99.73,60.813C99.971,60.962 100.287,60.888 100.435,60.647Z" style="fill:rgb(207,20,18);"/>
            </g>
            <g transform="matrix(0,-1,1,0,39.6222,160.378)">
                <path d="M100.435,60.647C100.723,60.146 101.184,59.341 101.432,58.518C101.608,57.931 101.684,57.337 101.547,56.82C101.469,56.527 101.289,56.217 101.034,55.91C100.537,55.313 99.761,54.703 99.209,54.161C98.928,53.886 98.702,53.642 98.645,53.42C98.577,53.158 98.712,52.908 98.909,52.678C99.241,52.29 99.75,51.963 100.072,51.755C100.139,51.716 100.16,51.629 100.121,51.563C100.081,51.496 99.995,51.475 99.928,51.514C99.569,51.712 99.006,52.028 98.624,52.416C98.304,52.74 98.123,53.121 98.198,53.52C98.251,53.806 98.491,54.153 98.823,54.527C99.322,55.089 100.036,55.73 100.478,56.342C100.64,56.566 100.761,56.784 100.801,56.99C100.876,57.38 100.77,57.813 100.609,58.239C100.332,58.971 99.857,59.67 99.565,60.108C99.416,60.349 99.49,60.665 99.73,60.813C99.971,60.962 100.287,60.888 100.435,60.647Z" style="fill:rgb(207,20,18);"/>
            </g>
            <g transform="matrix(-0.707107,-0.707107,0.707107,-0.707107,128.017,173.782)">
                <path d="M100.435,60.647C100.723,60.146 101.184,59.341 101.432,58.518C101.608,57.931 101.684,57.337 101.547,56.82C101.469,56.527 101.289,56.217 101.034,55.91C100.537,55.313 99.761,54.703 99.209,54.161C98.928,53.886 98.702,53.642 98.645,53.42C98.577,53.158 98.712,52.908 98.909,52.678C99.241,52.29 99.75,51.963 100.072,51.755C100.139,51.716 100.16,51.629 100.121,51.563C100.081,51.496 99.995,51.475 99.928,51.514C99.569,51.712 99.006,52.028 98.624,52.416C98.304,52.74 98.123,53.121 98.198,53.52C98.251,53.806 98.491,54.153 98.823,54.527C99.322,55.089 100.036,55.73 100.478,56.342C100.64,56.566 100.761,56.784 100.801,56.99C100.876,57.38 100.77,57.813 100.609,58.239C100.332,58.971 99.857,59.67 99.565,60.108C99.416,60.349 99.49,60.665 99.73,60.813C99.971,60.962 100.287,60.888 100.435,60.647Z" style="fill:rgb(207,20,18);"/>
            </g>
            <g transform="matrix(-1,-1.11022e-16,1.11022e-16,-1,200,120.756)">
                <path d="M100.435,60.647C100.723,60.146 101.184,59.341 101.432,58.518C101.608,57.931 101.684,57.337 101.547,56.82C101.469,56.527 101.289,56.217 101.034,55.91C100.537,55.313 99.761,54.703 99.209,54.161C98.928,53.886 98.702,53.642 98.645,53.42C98.577,53.158 98.712,52.908 98.909,52.678C99.241,52.29 99.75,51.963 100.072,51.755C100.139,51.716 100.16,51.629 100.121,51.563C100.081,51.496 99.995,51.475 99.928,51.514C99.569,51.712 99.006,52.028 98.624,52.416C98.304,52.74 98.123,53.121 98.198,53.52C98.251,53.806 98.491,54.153 98.823,54.527C99.322,55.089 100.036,55.73 100.478,56.342C100.64,56.566 100.761,56.784 100.801,56.99C100.876,57.38 100.77,57.813 100.609,58.239C100.332,58.971 99.857,59.67 99.565,60.108C99.416,60.349 99.49,60.665 99.73,60.813C99.971,60.962 100.287,60.888 100.435,60.647Z" style="fill:rgb(207,20,18);"/>
            </g>
            <g transform="matrix(0.707107,0.707107,-0.707107,0.707107,71.9829,-53.0264)">
                <path d="M100.435,60.647C100.723,60.146 101.184,59.341 101.432,58.518C101.608,57.931 101.684,57.337 101.547,56.82C101.469,56.527 101.289,56.217 101.034,55.91C100.537,55.313 99.761,54.703 99.209,54.161C98.928,53.886 98.702,53.642 98.645,53.42C98.577,53.158 98.712,52.908 98.909,52.678C99.241,52.29 99.75,51.963 100.072,51.755C100.139,51.716 100.16,51.629 100.121,51.563C100.081,51.496 99.995,51.475 99.928,51.514C99.569,51.712 99.006,52.028 98.624,52.416C98.304,52.74 98.123,53.121 98.198,53.52C98.251,53.806 98.491,54.153 98.823,54.527C99.322,55.089 100.036,55.73 100.478,56.342C100.64,56.566 100.761,56.784 100.801,56.99C100.876,57.38 100.77,57.813 100.609,58.239C100.332,58.971 99.857,59.67 99.565,60.108C99.416,60.349 99.49,60.665 99.73,60.813C99.971,60.962 100.287,60.888 100.435,60.647Z" style="fill:rgb(207,20,18);"/>
            </g>
            <g transform="matrix(1.11022e-16,1,-1,1.11022e-16,160.378,-39.6222)">
                <path d="M100.435,60.647C100.723,60.146 101.184,59.341 101.432,58.518C101.608,57.931 101.684,57.337 101.547,56.82C101.469,56.527 101.289,56.217 101.034,55.91C100.537,55.313 99.761,54.703 99.209,54.161C98.928,53.886 98.702,53.642 98.645,53.42C98.577,53.158 98.712,52.908 98.909,52.678C99.241,52.29 99.75,51.963 100.072,51.755C100.139,51.716 100.16,51.629 100.121,51.563C100.081,51.496 99.995,51.475 99.928,51.514C99.569,51.712 99.006,52.028 98.624,52.416C98.304,52.74 98.123,53.121 98.198,53.52C98.251,53.806 98.491,54.153 98.823,54.527C99.322,55.089 100.036,55.73 100.478,56.342C100.64,56.566 100.761,56.784 100.801,56.99C100.876,57.38 100.77,57.813 100.609,58.239C100.332,58.971 99.857,59.67 99.565,60.108C99.416,60.349 99.49,60.665 99.73,60.813C99.971,60.962 100.287,60.888 100.435,60.647Z" style="fill:rgb(207,20,18);"/>
            </g>
            <g transform="matrix(-0.707107,0.707107,-0.707107,-0.707107,213.404,32.3607)">
                <path d="M100.435,60.647C100.723,60.146 101.184,59.341 101.432,58.518C101.608,57.931 101.684,57.337 101.547,56.82C101.469,56.527 101.289,56.217 101.034,55.91C100.537,55.313 99.761,54.703 99.209,54.161C98.928,53.886 98.702,53.642 98.645,53.42C98.577,53.158 98.712,52.908 98.909,52.678C99.241,52.29 99.75,51.963 100.072,51.755C100.139,51.716 100.16,51.629 100.121,51.563C100.081,51.496 99.995,51.475 99.928,51.514C99.569,51.712 99.006,52.028 98.624,52.416C98.304,52.74 98.123,53.121 98.198,53.52C98.251,53.806 98.491,54.153 98.823,54.527C99.322,55.089 100.036,55.73 100.478,56.342C100.64,56.566 100.761,56.784 100.801,56.99C100.876,57.38 100.77,57.813 100.609,58.239C100.332,58.971 99.857,59.67 99.565,60.108C99.416,60.349 99.49,60.665 99.73,60.813C99.971,60.962 100.287,60.888 100.435,60.647Z" style="fill:rgb(207,20,18);"/>
            </g>
        </g>
    </g>
</svg>
