<?xml version="1.0" encoding="UTF-8" standalone="no"?>
<!DOCTYPE svg PUBLIC "-//W3C//DTD SVG 1.1//EN" "http://www.w3.org/Graphics/SVG/1.1/DTD/svg11.dtd">
<svg width="22" height="22" viewBox="0 0 22 22" version="1.1" xmlns="http://www.w3.org/2000/svg" xmlns:xlink="http://www.w3.org/1999/xlink" xml:space="preserve" xmlns:serif="http://www.serif.com/" style="fill-rule:evenodd;clip-rule:evenodd;stroke-linecap:round;stroke-linejoin:round;stroke-miterlimit:1.5;">
    <g transform="matrix(1,0,0,1,-89,-49)">
        <g transform="matrix(1,0,0,1,0,-0.377836)">
            <g transform="matrix(0.83721,0,0,1.00867,22.9005,-20.1784)">
                <ellipse cx="92.091" cy="79.864" rx="11.925" ry="9.914" style="fill:rgb(32,144,0);stroke:rgb(76,207,18);stroke-width:0.51px;"/>
            </g>
            <g>
                <g transform="matrix(1,1.10829e-17,1.109e-17,0.98462,3.53955e-15,0.786007)">
                    <path d="M100.492,70.378L100.135,51.104C100.135,51.029 100.075,50.967 100,50.967C99.925,50.967 99.865,51.029 99.865,51.104L99.508,70.378C99.508,70.654 99.728,70.878 100,70.878C100.272,70.878 100.492,70.654 100.492,70.378Z" style="fill:rgb(76,207,18);"/>
                </g>
                <g>
                    <path d="M100.2,67.133L109.066,62.792C109.134,62.762 109.165,62.682 109.134,62.614C109.104,62.546 109.024,62.515 108.956,62.545L99.8,66.234C99.551,66.344 99.44,66.636 99.55,66.884C99.661,67.132 99.952,67.244 100.2,67.133Z" style="fill:rgb(76,207,18);"/>
                    <g transform="matrix(0.943902,0.0189874,0.0189874,0.993573,4.41988,-1.49599)">
                        <path d="M100.158,63.135L108.28,60.009C108.355,59.983 108.397,59.905 108.373,59.835C108.349,59.764 108.269,59.727 108.193,59.753L99.842,62.202C99.568,62.295 99.415,62.58 99.503,62.837C99.59,63.094 99.883,63.228 100.158,63.135Z" style="fill:rgb(76,207,18);"/>
                    </g>
                    <path d="M100.101,59.409L105.781,57.541C105.835,57.526 105.867,57.469 105.852,57.414C105.837,57.36 105.78,57.328 105.725,57.343L99.899,58.687C99.7,58.743 99.583,58.95 99.639,59.149C99.694,59.348 99.901,59.465 100.101,59.409Z" style="fill:rgb(76,207,18);"/>
                    <g transform="matrix(1.2215,-0.0448503,-0.0448503,1.00908,-19.6449,3.97777)">
                        <path d="M100.052,56.114L102.891,55.346C102.922,55.339 102.942,55.302 102.934,55.264C102.926,55.225 102.894,55.199 102.862,55.205L99.948,55.601C99.833,55.624 99.763,55.758 99.792,55.9C99.82,56.041 99.937,56.137 100.052,56.114Z" style="fill:rgb(76,207,18);"/>
                    </g>
                    <g transform="matrix(1,0,0,1,0,-2.38598)">
                        <path d="M100.052,56.114L101.452,55.639C101.491,55.631 101.516,55.594 101.509,55.555C101.501,55.516 101.463,55.491 101.424,55.499L99.948,55.601C99.807,55.63 99.715,55.768 99.743,55.909C99.772,56.051 99.91,56.143 100.052,56.114Z" style="fill:rgb(76,207,18);"/>
                    </g>
                </g>
                <g transform="matrix(-1,0,0,1,200,0)">
                    <path d="M99.8,66.234L108.956,62.545C109.024,62.515 109.104,62.546 109.134,62.614C109.165,62.682 109.134,62.762 109.066,62.792L100.2,67.133C99.952,67.244 99.661,67.132 99.55,66.884C99.44,66.636 99.551,66.344 99.8,66.234Z" style="fill:rgb(76,207,18);"/>
                    <g transform="matrix(0.943902,0.0189874,0.0189874,0.993573,4.41988,-1.49599)">
                        <path d="M99.842,62.202L108.193,59.753C108.269,59.727 108.349,59.764 108.373,59.835C108.397,59.905 108.355,59.983 108.28,60.009L100.158,63.135C99.883,63.228 99.59,63.094 99.503,62.837C99.415,62.58 99.568,62.295 99.842,62.202Z" style="fill:rgb(76,207,18);"/>
                    </g>
                    <path d="M99.899,58.687L105.725,57.343C105.78,57.328 105.837,57.36 105.852,57.414C105.867,57.469 105.835,57.526 105.781,57.541L100.101,59.409C99.901,59.465 99.694,59.348 99.639,59.149C99.583,58.95 99.7,58.743 99.899,58.687Z" style="fill:rgb(76,207,18);"/>
                    <g transform="matrix(1.2215,-0.0448503,-0.0448503,1.00908,-19.6449,3.97777)">
                        <path d="M99.948,55.601L102.862,55.205C102.894,55.199 102.926,55.225 102.934,55.264C102.942,55.302 102.922,55.339 102.891,55.346L100.052,56.114C99.937,56.137 99.82,56.041 99.792,55.9C99.763,55.758 99.833,55.624 99.948,55.601Z" style="fill:rgb(76,207,18);"/>
                    </g>
                    <g transform="matrix(1,0,0,1,0,-2.38598)">
                        <path d="M99.948,55.601L101.424,55.499C101.463,55.491 101.501,55.516 101.509,55.555C101.516,55.594 101.491,55.631 101.452,55.639L100.052,56.114C99.91,56.143 99.772,56.051 99.743,55.909C99.715,55.768 99.807,55.63 99.948,55.601Z" style="fill:rgb(76,207,18);"/>
                    </g>
                </g>
            </g>
        </g>
    </g>
</svg>
